<?xml version="1.0" encoding="UTF-8" standalone="no"?>
<svg
   width="53.376431"
   height="53.361954"
   viewBox="0 0 53.376431 53.361954"
   fill="none"
   version="1.1"
   id="svg29"
   sodipodi:docname="setur_logo_hvitt.svg"
   inkscape:version="1.4.2 (ebf0e940d0, 2025-05-08)"
   xmlns:inkscape="http://www.inkscape.org/namespaces/inkscape"
   xmlns:sodipodi="http://sodipodi.sourceforge.net/DTD/sodipodi-0.dtd"
   xmlns="http://www.w3.org/2000/svg"
   xmlns:svg="http://www.w3.org/2000/svg">
  <sodipodi:namedview
     id="namedview29"
     pagecolor="#ffffff"
     bordercolor="#000000"
     borderopacity="0.25"
     inkscape:showpageshadow="2"
     inkscape:pageopacity="0.0"
     inkscape:pagecheckerboard="0"
     inkscape:deskcolor="#d1d1d1"
     inkscape:zoom="8.575245"
     inkscape:cx="58.190757"
     inkscape:cy="26.938006"
     inkscape:window-width="2340"
     inkscape:window-height="1381"
     inkscape:window-x="0"
     inkscape:window-y="0"
     inkscape:window-maximized="0"
     inkscape:current-layer="g29" />
  <g
     clip-path="url(#clip0_137_3)"
     id="g29"
     style="display:inline;fill:#1a1a1a"
     transform="translate(-0.52221636,-0.82665932)">
    <path
       opacity="0.8"
       d="m 23.9527,38.6465 c -0.42,-0.45 -2.74,-2.74 -2.74,-2.74 -0.43,-0.44 -0.79,-0.29 -1.07,0 l -13.80004,13.84 c -0.29,0.29 -0.42,0.65 0,1.08 l 2.22,2.22 c 0.47,0.47 0.88,0.15 1.05,-0.03 l 4.57004,-4.56 1.15,5.39 c 0.18,0.55 0.76,0.31 1.03,0.04 l 2.9,-2.9 c 0.26,-0.22 0.07,-0.56 0,-1.07 l -1.2,-5.34 2.31,-2.32 2.18,8.53 c 0.24,0.52 0.77,0.31 1.03,0.04 l 2.58,-2.58 c 0.32,-0.31 0.08,-0.64 0,-1.07 0,0 -1.78,-8.09 -2.2,-8.54 z"
       fill="#FDFDFC"
       id="path7"
       style="fill:#1a1a1a" />
    <path
       opacity="0.8"
       d="m 50.6926,35.4665 c -0.22,-0.26 -0.56,-0.08 -1.07,0 l -5.34,1.2 -2.31,-2.31 8.52,-2.18 c 0.53,-0.24 0.31,-0.77 0.05,-1.03 l -2.58,-2.58 c -0.31,-0.32 -0.64,-0.08 -1.08,0 0,0 -8.09,1.78 -8.54,2.2 -0.44,0.41 -2.74,2.74 -2.74,2.74 -0.43,0.43 -0.29,0.78 0,1.08 l 13.84,13.8 c 0.29,0.29 0.66,0.42 1.08,0 l 2.22,-2.22 c 0.47,-0.47 0.15,-0.87 -0.02,-1.06 l -4.56,-4.55 5.38,-1.16 c 0.56,-0.18 0.32,-0.76 0.05,-1.03 l -2.9,-2.89 z"
       fill="#FDFDFC"
       id="path8"
       style="fill:#1a1a1a" />
    <path
       opacity="0.8"
       d="m 18.8024,33.4965 c 0,0 -2.3,-2.33 -2.74,-2.74 -0.44,-0.42 -8.52999,-2.21 -8.52999,-2.21 -0.43,-0.08 -0.77,-0.31 -1.08,0 l -2.58,2.58 c -0.27,0.27 -0.48,0.79 0.04,1.04 l 8.51999,2.18 -2.31,2.31 -5.33999,-1.2 c -0.52,-0.08 -0.85,-0.26 -1.07,0 l -2.9,2.89 c -0.27,0.27 -0.51,0.84 0.05,1.03 l 5.38,1.16 -4.56,4.55 c -0.18,0.18 -0.5,0.58 -0.02,1.06 l 2.21,2.22 c 0.42,0.42 0.79,0.29 1.07,0 l 13.84999,-13.8 c 0.29,-0.29 0.43,-0.65 0,-1.07 z"
       fill="#FDFDFC"
       id="path10"
       style="fill:#1a1a1a" />
    <path
       opacity="0.8"
       d="m 20.1324,19.0969 c 0.29,0.29 0.65,0.43 1.07,0 0,0 2.32,-2.3 2.74,-2.74 0.41,-0.45 2.2,-8.54005 2.2,-8.54005 0.09,-0.43 0.31,-0.76 0,-1.08 l -2.58,-2.57 c -0.27,-0.27 -0.79,-0.48 -1.03,0.04 l -2.19,8.52005 -2.3,-2.31 1.2,-5.34005 c 0.07,-0.51 0.26,-0.84 0,-1.08 l -2.89,-2.88 c -0.27,-0.269996 -0.85,-0.509996 -1.03,0.05 l -1.15,5.39 -4.56999,-4.58 c -0.17,-0.18 -0.58,-0.49 -1.05,-0.02 l -2.22,2.22 c -0.42,0.43 -0.29,0.79 0,1.07 L 20.1324,19.0869 Z"
       fill="#FDFDFC"
       id="path11"
       style="fill:#1a1a1a" />
    <path
       opacity="0.8"
       d="m 3.73255,19.5468 c 0.22,0.25 0.56,0.07 1.07,0 l 5.34005,-1.21 2.31,2.31 -8.52005,2.19 c -0.53,0.23 -0.32,0.76 -0.05,1.03 l 2.57,2.57 c 0.31,0.32 0.64,0.08 1.08,0 0,0 8.09005,-1.79 8.53005,-2.21 0.45,-0.41 2.74,-2.73 2.74,-2.73 0.43,-0.43 0.29,-0.78 0,-1.08 L 4.95255,6.62684 c -0.29,-0.29 -0.65,-0.42 -1.07,0 l -2.22,2.22 c -0.47,0.47 -0.16,0.88 0.02,1.06 l 4.57,4.56996 -5.379999,1.14 c -0.56,0.18 -0.31,0.76 -0.05,1.03 l 2.899999,2.9 z"
       fill="#FDFDFC"
       id="path12"
       style="fill:#1a1a1a" />
    <path
       opacity="0.8"
       d="m 34.2826,35.9067 c -0.29,-0.3 -0.65,-0.43 -1.07,0 -0.92,0.9 -1.84,1.82 -2.75,2.74 -0.41,0.45 -2.2,8.54 -2.2,8.54 -0.09,0.44 -0.31,0.76 0,1.07 l 2.58,2.58 c 0.27,0.27 0.79,0.49 1.03,-0.04 l 2.19,-8.53 2.31,2.32 -1.2,5.34 c -0.08,0.51 -0.26,0.85 0,1.07 l 2.89,2.9 c 0.27,0.27 0.85,0.51 1.03,-0.04 l 1.16,-5.39 4.56,4.57 c 0.18,0.18 0.59,0.49 1.06,0.03 l 2.21,-2.22 c 0.43,-0.44 0.29,-0.79 0,-1.08 l -13.8,-13.84 z"
       fill="#FDFDFC"
       id="path27"
       style="fill:#1a1a1a" />
    <path
       opacity="0.8"
       d="m 30.4626,16.3665 c 0.43,0.44 2.75,2.73 2.75,2.73 0.42,0.43 0.78,0.29 1.08,0 l 13.8,-13.84 c 0.29,-0.29 0.42,-0.65 0,-1.08 l -2.22,-2.22 c -0.47,-0.46 -0.87,-0.16 -1.06,0.03 l -4.56,4.57 -1.15,-5.39 c -0.19,-0.560004 -0.77,-0.310004 -1.04,-0.05 l -2.89,2.89 c -0.26,0.22 -0.08,0.57 0,1.08 l 1.2,5.34 -2.3,2.31 -2.19,-8.52 c -0.24,-0.53 -0.76,-0.31 -1.03,-0.04 l -2.58,2.57 c -0.31,0.32 -0.08,0.65 0,1.08 0,0 1.79,8.09 2.2,8.54 z"
       fill="#FDFDFC"
       id="path28"
       style="fill:#1a1a1a" />
    <path
       opacity="0.8"
       d="m 35.6126,21.5068 c 0,0 2.29,2.32 2.74,2.73 0.45,0.43 8.54,2.21 8.54,2.21 0.43,0.08 0.76,0.31 1.08,0 l 2.58,-2.58 c 0.26,-0.27 0.48,-0.79 -0.05,-1.03 l -8.52,-2.19 2.31,-2.31 5.34,1.2 c 0.51,0.07 0.84,0.26 1.07,0 l 2.9,-2.9 c 0.27,-0.26 0.52,-0.85 -0.04,-1.03 l -5.39,-1.15 4.56,-4.55996 c 0.18,-0.18 0.49,-0.59 0.02,-1.05 l -2.21,-2.22 c -0.43,-0.42 -0.79,-0.29 -1.08,0 l -13.84,13.79996 c -0.29,0.3 -0.43,0.65 0,1.08 z"
       fill="#FDFDFC"
       id="path29"
       style="fill:#1a1a1a" />
  </g>
  <defs
     id="defs29">
    <clipPath
       id="clip0_137_3">
      <rect
         width="337.95999"
         height="53.360001"
         fill="#ffffff"
         transform="translate(0.532471,0.82666)"
         id="rect29"
         x="0"
         y="0" />
    </clipPath>
  </defs>
  <g
     inkscape:groupmode="layer"
     id="layer1"
     inkscape:label="Layer 1"
     transform="translate(-0.52221636,-0.82665932)" />
</svg>
